<?xml version="1.0" encoding="UTF-8" standalone="no"?>
<!DOCTYPE svg PUBLIC "-//W3C//DTD SVG 1.1//EN" "http://www.w3.org/Graphics/SVG/1.1/DTD/svg11.dtd">
<svg width="100%" height="100%" viewBox="0 0 1920 1080" version="1.1" xmlns="http://www.w3.org/2000/svg" xmlns:xlink="http://www.w3.org/1999/xlink" xml:space="preserve" xmlns:serif="http://www.serif.com/" style="fill-rule:evenodd;clip-rule:evenodd;stroke-linejoin:round;stroke-miterlimit:2;">
    <g>
        <g id="bg_news_strip" transform="matrix(1,0,0,1.00146,0,-1.58009)">
            <rect x="0" y="824.374" width="1920" height="255.626" style="fill:rgb(182,0,0);"/>
        </g>
        <g id="text_title" transform="matrix(1,0,0,1,-116.695,79.273)">
            <text x="387.42px" y="856.036px" style="font-family:'Cambria', serif;font-size:66.667px;fill:white;">[[title]]</text>
        </g>
        <g id="text_subtitle" transform="matrix(1,0,0,1,-116.695,132.273)">
            <text x="387.42px" y="856.036px" style="font-family:'Humanist521BT-Roman', 'Humanst521 BT', sans-serif;font-size:45.833px;fill:white;">[[subtitle]]</text>
        </g>
        <g id="bg_relevant_excerpt" transform="matrix(1,0,0,0.281661,0,775.806)">
            <rect x="0" y="824.374" width="1920" height="255.626" style="fill:white;"/>
            <g id="text_excerpt" transform="matrix(1,0,0,3.55036,-86.6506,-2073.63)">
                <text x="387.42px" y="856.036px" style="font-family:'Humanist521BT-Roman', 'Humanst521 BT', sans-serif;font-size:37.5px;fill:rgb(182,0,0);">[[excerpt]]</text>
            </g>
            <g transform="matrix(0.00625,0,0,0.166667,274,761.536)">
                <rect x="0" y="824.374" width="1920" height="255.626" style="fill:rgb(182,0,0);"/>
            </g>
        </g>
        <g id="bg_time" transform="matrix(0.0666667,0,0,0.211246,1536,833.854)">
            <rect x="0" y="824.374" width="1920" height="255.626" style="fill:rgb(182,0,0);"/>
            <g id="text_time" transform="matrix(15,0,0,4.73381,-6141.23,-3039.54)">
                <text x="439.394px" y="856.036px" style="font-family:'Humanist521BT-Roman', 'Humanst521 BT', sans-serif;font-size:37.5px;fill:white;">[[time]]</text>
            </g>
        </g>
        <g transform="matrix(0.108333,0,0,0.211246,520,649.854)">
            <rect x="0" y="824.374" width="1920" height="255.626" style="fill:white;"/>
            <g transform="matrix(9.23077,0,0,4.73381,-3413.45,-3039.8)">
                <text x="386.083px" y="856.036px" style="font-family:'Humanist521BT-Roman', 'Humanst521 BT', sans-serif;font-size:37.5px;fill:rgb(182,0,0);">BREAKING</text>
            </g>
        </g>
        <g transform="matrix(0.249688,0,0,0.249688,264,831.05)">
            <g transform="matrix(0.30075,0,0,0.30075,-158.761,-371.216)">
                <path d="M661.049,1740L1140.45,1740L1140.45,1260.6L661.049,1260.6L661.049,1740ZM1020.11,1563.64L1042.69,1563.64C1043.83,1568.36 1048.07,1571.86 1053.14,1571.86C1059.07,1571.86 1063.88,1567.05 1063.88,1561.11C1063.88,1555.18 1059.07,1550.37 1053.14,1550.37C1048.07,1550.37 1043.83,1553.87 1042.69,1558.59L1020.11,1558.59L1020.11,1542.36L989.371,1531.59L989.371,1474.67C989.371,1465.36 981.824,1457.81 972.517,1457.81L928.131,1457.81L928.131,1445.45C928.131,1436.14 920.585,1428.6 911.277,1428.6L903.629,1428.6L903.629,1406.57L919.665,1418.22L912.439,1395.98L931.355,1382.24L907.974,1382.24L900.748,1360L893.523,1382.24L870.141,1382.24L889.058,1395.98L881.832,1418.22L897.869,1406.57L897.869,1428.6L890.22,1428.6C880.912,1428.6 873.367,1436.14 873.367,1445.45L873.367,1457.81L828.98,1457.81C819.672,1457.81 812.127,1465.36 812.127,1474.67L812.127,1531.59L781.392,1542.36L781.392,1558.59L758.805,1558.59C757.668,1553.87 753.422,1550.37 748.359,1550.37C742.426,1550.37 737.616,1555.18 737.616,1561.11C737.616,1567.05 742.426,1571.86 748.359,1571.86C753.422,1571.86 757.667,1568.36 758.805,1563.64L781.392,1563.64L781.392,1578.18L812.127,1588.95L812.127,1605C812.127,1614.31 819.672,1621.86 828.98,1621.86L844.677,1621.86C843.984,1623.45 843.599,1625.2 843.599,1627.04C843.599,1634.2 849.4,1640 856.558,1640L944.94,1640C952.097,1640 957.898,1634.2 957.898,1627.04C957.898,1625.2 957.513,1623.45 956.819,1621.86L972.517,1621.86C981.824,1621.86 989.371,1614.31 989.371,1605L989.371,1588.95L1020.11,1578.18L1020.11,1563.64ZM899.552,1593.54L886.209,1593.54L886.209,1605.83L899.552,1605.83L899.552,1593.54ZM901.944,1593.54L915.288,1593.54L915.288,1605.83L901.944,1605.83L901.944,1593.54ZM948.991,1593.54L935.655,1593.54L935.655,1605.83L948.991,1605.83L948.991,1593.54ZM852.506,1593.54L865.844,1593.54L865.844,1605.83L852.506,1605.83L852.506,1593.54ZM869.215,1593.54L882.84,1593.54L882.84,1605.83L869.215,1605.83L869.215,1593.54ZM932.283,1593.54L918.658,1593.54L918.658,1605.83L932.283,1605.83L932.283,1593.54ZM899.552,1578.86L886.209,1578.86L886.209,1590.17L899.552,1590.17L899.552,1578.86ZM901.944,1578.86L915.288,1578.86L915.288,1590.17L901.944,1590.17L901.944,1578.86ZM882.839,1578.86L869.214,1578.86L869.214,1590.17L882.839,1590.17L882.839,1578.86ZM918.658,1578.86L932.283,1578.86L932.283,1590.17L918.658,1590.17L918.658,1578.86ZM948.991,1578.86L935.655,1578.86L935.655,1590.17L948.991,1590.17L948.991,1578.86ZM852.506,1578.86L865.844,1578.86L865.844,1590.17L852.506,1590.17L852.506,1578.86ZM881.232,1532.81C881.232,1546 870.542,1556.69 857.354,1556.69C844.167,1556.69 833.479,1546 833.479,1532.81C833.479,1519.63 844.167,1508.94 857.354,1508.94C870.542,1508.94 881.232,1519.63 881.232,1532.81ZM920.264,1532.81C920.264,1546 930.957,1556.69 944.143,1556.69C957.329,1556.69 968.02,1546 968.02,1532.81C968.02,1519.63 957.329,1508.94 944.143,1508.94C930.957,1508.94 920.264,1519.63 920.264,1532.81ZM934.248,1532.81C934.248,1538.28 938.68,1542.71 944.143,1542.71C949.607,1542.71 954.035,1538.28 954.035,1532.81C954.035,1527.35 949.607,1522.92 944.143,1522.92C938.68,1522.92 934.248,1527.35 934.248,1532.81ZM867.249,1532.81C867.249,1538.28 862.82,1542.71 857.354,1542.71C851.89,1542.71 847.461,1538.28 847.461,1532.81C847.461,1527.35 851.89,1522.92 857.354,1522.92C862.82,1522.92 867.249,1527.35 867.249,1532.81Z" style="fill:white;"/>
            </g>
            <g transform="matrix(0.901125,0,0,0.901125,28.035,7.91)">
                <path d="M245,35L278.8,35C288.75,35 296.5,36.99 301.9,40.98C307.36,44.97 310.1,50.69 310.1,58.18C310.1,62.46 309.121,66.17 307.16,69.28C305.2,72.43 302.3,74.92 298.47,76.77C303.77,78.53 307.83,81.32 310.67,85.14C313.49,88.96 314.89,93.6 314.89,99.04C314.89,104.41 313.52,109.03 310.79,112.84C308.06,116.7 304.16,119.68 299.09,121.78C294.03,123.88 287.99,124.93 280.89,124.93L244.99,124.93L245,35ZM200,160L360,160L360,0L200,0L200,160ZM277.1,50C286.81,50 291.7,53.57 291.7,60.7C291.7,64.39 290.46,67.27 287.97,69.32C285.48,71.38 281.87,72.4 277.17,72.4L263.37,72.4L263.37,50L277.1,50ZM279.42,86.5L263.22,86.5L263.22,110.8L279.12,110.8C284.58,110.8 288.79,109.77 291.72,107.72C294.66,105.66 296.13,102.71 296.13,98.85C296.13,90.63 290.54,86.55 279.33,86.55L279.42,86.5Z" style="fill:white;fill-rule:nonzero;"/>
            </g>
            <g transform="matrix(0.901125,0,0,0.901125,16.02,7.89023)">
                <path d="M502,124C506.91,122.81 511.23,121.18 515,119.13L515,102.03C507.13,106.88 498.5,109.31 489.2,109.31C483.1,109.31 477.9,108.16 473.6,105.86C469.32,103.56 466.06,100.21 463.82,95.76C461.57,91.36 460.45,86.03 460.45,79.76C460.45,73.51 461.61,68.16 463.94,63.86C466.27,59.5 469.61,56.17 473.94,53.87C478.3,51.57 483.57,50.42 489.74,50.42C494.23,50.42 498.51,51.018 502.54,52.21C506.6,53.4 510.37,55.15 513.84,57.45L513.84,39.95C510.03,37.98 505.9,36.48 501.44,35.45C496.99,34.42 492.27,33.91 487.24,33.91C480.04,33.91 473.54,34.98 467.74,37.12C461.94,39.26 456.94,42.34 452.84,46.37C448.69,50.4 445.51,55.23 443.31,60.87C441.11,66.5 440.01,72.77 440.01,79.77C440.01,86.93 441.07,93.37 443.19,99.07C445.31,104.79 448.35,109.57 452.34,113.57C456.32,117.52 461.19,120.54 466.94,122.64C472.7,124.74 479.14,125.79 486.34,125.79C491.76,125.79 496.94,125.192 501.84,124L502,124ZM560,159.8L400,159.8L400,-0.2L560,-0.2L560,159.8Z" style="fill:white;fill-rule:nonzero;"/>
            </g>
        </g>
        <g transform="matrix(1,0,0,1,-15.4961,7.78139)">
            <text x="422.53px" y="856.036px" style="font-family:'Humanist521BT-Roman', 'Humanst521 BT', sans-serif;font-size:37.5px;fill:white;">NEWS</text>
        </g>
    </g>
</svg>
